<svg width="23" height="20" viewBox="0 0 23 20" fill="none" xmlns="http://www.w3.org/2000/svg">
<path id="Vector" d="M10.7413 17.8188L10.7398 17.8175C7.88754 15.2547 5.60109 13.1952 4.01603 11.2737C2.44166 9.36525 1.6665 7.71727 1.6665 5.99455C1.6665 3.18883 3.87089 1 6.7165 1C8.33161 1 9.89576 1.75012 10.9106 2.92176L11.6665 3.79437L12.4224 2.92176C13.4373 1.75012 15.0014 1 16.6165 1C19.4621 1 21.6665 3.18883 21.6665 5.99455C21.6665 7.71727 20.8913 9.36525 19.317 11.2737C17.7319 13.1952 15.4455 15.2547 12.5932 17.8175L12.5917 17.8188L11.6665 18.6533L10.7413 17.8188Z" fill="#DE5F35" stroke="white" stroke-width="2"/>
</svg>
